<svg xmlns="http://www.w3.org/2000/svg" xmlns:xlink="http://www.w3.org/1999/xlink" xmlns:s="https://github.com/nturley/netlistsvg" width="679" height="644">
  <rect id="__whitebg__" x="0" y="0" width="100%" height="100%" fill="#ffffff"/>
  <style>svg {
    stroke:#000;
    fill:none;
  }
  text {
    fill:#000;
    stroke:none;
    font-size:10px;
    font-weight: bold;
    font-family: "Courier New", monospace;
  }
  .nodelabel {
    text-anchor: middle;
  }
  .inputPortLabel {
    text-anchor: end;
  }
  .splitjoinBody {
    fill:#000;
  }</style>
  <g s:type="and" transform="translate(320,261.5)" s:width="30" s:height="25" id="cell_$logic_and$riscv_ooo_core/rtl/common_data_bus.v:57$4">
    <s:alias val="$and"/>
    <s:alias val="$logic_and"/>
    <s:alias val="$_AND_"/>
    <path d="M0,0 L0,25 L15,25 A15 12.5 0 0 0 15,0 Z" class="cell_$logic_and$riscv_ooo_core/rtl/common_data_bus.v:57$4"/>
    <g s:x="0" s:y="5" s:pid="A"/>
    <g s:x="0" s:y="20" s:pid="B"/>
    <g s:x="30" s:y="12.5" s:pid="Y"/>
  </g>
  <g s:type="and" transform="translate(255,557)" s:width="30" s:height="25" id="cell_$logic_and$riscv_ooo_core/rtl/common_data_bus.v:58$7">
    <s:alias val="$and"/>
    <s:alias val="$logic_and"/>
    <s:alias val="$_AND_"/>
    <path d="M0,0 L0,25 L15,25 A15 12.5 0 0 0 15,0 Z" class="cell_$logic_and$riscv_ooo_core/rtl/common_data_bus.v:58$7"/>
    <g s:x="0" s:y="5" s:pid="A"/>
    <g s:x="0" s:y="20" s:pid="B"/>
    <g s:x="30" s:y="12.5" s:pid="Y"/>
  </g>
  <g s:type="and" transform="translate(390,269)" s:width="30" s:height="25" id="cell_$logic_and$riscv_ooo_core/rtl/common_data_bus.v:70$13">
    <s:alias val="$and"/>
    <s:alias val="$logic_and"/>
    <s:alias val="$_AND_"/>
    <path d="M0,0 L0,25 L15,25 A15 12.5 0 0 0 15,0 Z" class="cell_$logic_and$riscv_ooo_core/rtl/common_data_bus.v:70$13"/>
    <g s:x="0" s:y="5" s:pid="A"/>
    <g s:x="0" s:y="20" s:pid="B"/>
    <g s:x="30" s:y="12.5" s:pid="Y"/>
  </g>
  <g s:type="and" transform="translate(320,564.5)" s:width="30" s:height="25" id="cell_$logic_and$riscv_ooo_core/rtl/common_data_bus.v:73$14">
    <s:alias val="$and"/>
    <s:alias val="$logic_and"/>
    <s:alias val="$_AND_"/>
    <path d="M0,0 L0,25 L15,25 A15 12.5 0 0 0 15,0 Z" class="cell_$logic_and$riscv_ooo_core/rtl/common_data_bus.v:73$14"/>
    <g s:x="0" s:y="5" s:pid="A"/>
    <g s:x="0" s:y="20" s:pid="B"/>
    <g s:x="30" s:y="12.5" s:pid="Y"/>
  </g>
  <g s:type="not" transform="translate(190,402.5)" s:width="30" s:height="20" id="cell_$logic_not$riscv_ooo_core/rtl/common_data_bus.v:57$1">
    <s:alias val="$_NOT_"/>
    <s:alias val="$not"/>
    <s:alias val="$logic_not"/>
    <path d="M0,0 L0,20 L20,10 Z" class="cell_$logic_not$riscv_ooo_core/rtl/common_data_bus.v:57$1"/>
    <circle cx="23" cy="10" r="3" class="cell_$logic_not$riscv_ooo_core/rtl/common_data_bus.v:57$1"/>
    <g s:x="0" s:y="10" s:pid="A"/>
    <g s:x="25" s:y="10" s:pid="Y"/>
  </g>
  <g s:type="not" transform="translate(190,287.5)" s:width="30" s:height="20" id="cell_$logic_not$riscv_ooo_core/rtl/common_data_bus.v:57$2">
    <s:alias val="$_NOT_"/>
    <s:alias val="$not"/>
    <s:alias val="$logic_not"/>
    <path d="M0,0 L0,20 L20,10 Z" class="cell_$logic_not$riscv_ooo_core/rtl/common_data_bus.v:57$2"/>
    <circle cx="23" cy="10" r="3" class="cell_$logic_not$riscv_ooo_core/rtl/common_data_bus.v:57$2"/>
    <g s:x="0" s:y="10" s:pid="A"/>
    <g s:x="25" s:y="10" s:pid="Y"/>
  </g>
  <g s:type="not" transform="translate(113,337.5)" s:width="30" s:height="20" id="cell_$logic_not$riscv_ooo_core/rtl/common_data_bus.v:58$5">
    <s:alias val="$_NOT_"/>
    <s:alias val="$not"/>
    <s:alias val="$logic_not"/>
    <path d="M0,0 L0,20 L20,10 Z" class="cell_$logic_not$riscv_ooo_core/rtl/common_data_bus.v:58$5"/>
    <circle cx="23" cy="10" r="3" class="cell_$logic_not$riscv_ooo_core/rtl/common_data_bus.v:58$5"/>
    <g s:x="0" s:y="10" s:pid="A"/>
    <g s:x="25" s:y="10" s:pid="Y"/>
  </g>
  <g s:type="or" transform="translate(255,277.5)" s:width="30" s:height="25" id="cell_$logic_or$riscv_ooo_core/rtl/common_data_bus.v:57$3">
    <s:alias val="$or"/>
    <s:alias val="$logic_or"/>
    <s:alias val="$_OR_"/>
    <path d="M0,25 L0,25 L15,25 A15 12.5 0 0 0 15,0 L0,0" class="cell_$logic_or$riscv_ooo_core/rtl/common_data_bus.v:57$3"/>
    <path d="M0,0 A30 25 0 0 1 0,25" class="cell_$logic_or$riscv_ooo_core/rtl/common_data_bus.v:57$3"/>
    <g s:x="3" s:y="5" s:pid="A"/>
    <g s:x="3" s:y="20" s:pid="B"/>
    <g s:x="30" s:y="12.5" s:pid="Y"/>
  </g>
  <g s:type="or" transform="translate(190,342.5)" s:width="30" s:height="25" id="cell_$logic_or$riscv_ooo_core/rtl/common_data_bus.v:58$6">
    <s:alias val="$or"/>
    <s:alias val="$logic_or"/>
    <s:alias val="$_OR_"/>
    <path d="M0,25 L0,25 L15,25 A15 12.5 0 0 0 15,0 L0,0" class="cell_$logic_or$riscv_ooo_core/rtl/common_data_bus.v:58$6"/>
    <path d="M0,0 A30 25 0 0 1 0,25" class="cell_$logic_or$riscv_ooo_core/rtl/common_data_bus.v:58$6"/>
    <g s:x="3" s:y="5" s:pid="A"/>
    <g s:x="3" s:y="20" s:pid="B"/>
    <g s:x="30" s:y="12.5" s:pid="Y"/>
  </g>
  <g s:type="or" transform="translate(538,533.5)" s:width="30" s:height="25" id="cell_$logic_or$riscv_ooo_core/rtl/common_data_bus.v:61$8">
    <s:alias val="$or"/>
    <s:alias val="$logic_or"/>
    <s:alias val="$_OR_"/>
    <path d="M0,25 L0,25 L15,25 A15 12.5 0 0 0 15,0 L0,0" class="cell_$logic_or$riscv_ooo_core/rtl/common_data_bus.v:61$8"/>
    <path d="M0,0 A30 25 0 0 1 0,25" class="cell_$logic_or$riscv_ooo_core/rtl/common_data_bus.v:61$8"/>
    <g s:x="3" s:y="5" s:pid="A"/>
    <g s:x="3" s:y="20" s:pid="B"/>
    <g s:x="30" s:y="12.5" s:pid="Y"/>
  </g>
  <g s:type="dff" transform="translate(603,183)" s:width="30" s:height="40" id="cell_$procdff$23">
    <s:alias val="$dff"/>
    <s:alias val="$_DFF_"/>
    <s:alias val="$_DFF_P_"/>
    <rect width="30" height="40" x="0" y="0" class="cell_$procdff$23"/>
    <path d="M0,35 L5,30 L0,25" class="cell_$procdff$23"/>
    <g s:x="30" s:y="10" s:pid="Q"/>
    <g s:x="0" s:y="30" s:pid="CLK"/>
    <g s:x="0" s:y="30" s:pid="C"/>
    <g s:x="0" s:y="10" s:pid="D"/>
  </g>
  <g s:type="mux" transform="translate(396.6666666666667,492.5)" s:width="20" s:height="40" id="cell_$procmux$15">
    <s:alias val="$pmux"/>
    <s:alias val="$mux"/>
    <s:alias val="$_MUX_"/>
    <path d="M0,0 L20,10 L20,30 L0,40 Z" class="cell_$procmux$15"/>
    <g s:x="0" s:y="10" s:pid="A"/>
    <g s:x="0" s:y="30" s:pid="B"/>
    <g s:x="10" s:y="35" s:pid="S"/>
    <g s:x="20" s:y="20" s:pid="Y"/>
  </g>
  <g s:type="mux" transform="translate(464.3333333333333,194)" s:width="20" s:height="40" id="cell_$procmux$18">
    <s:alias val="$pmux"/>
    <s:alias val="$mux"/>
    <s:alias val="$_MUX_"/>
    <path d="M0,0 L20,10 L20,30 L0,40 Z" class="cell_$procmux$18"/>
    <g s:x="0" s:y="10" s:pid="A"/>
    <g s:x="0" s:y="30" s:pid="B"/>
    <g s:x="10" s:y="35" s:pid="S"/>
    <g s:x="20" s:y="20" s:pid="Y"/>
  </g>
  <g s:type="mux" transform="translate(541.3333333333334,173)" s:width="20" s:height="40" id="cell_$procmux$21">
    <s:alias val="$pmux"/>
    <s:alias val="$mux"/>
    <s:alias val="$_MUX_"/>
    <path d="M0,0 L20,10 L20,30 L0,40 Z" class="cell_$procmux$21"/>
    <g s:x="0" s:y="10" s:pid="A"/>
    <g s:x="0" s:y="30" s:pid="B"/>
    <g s:x="10" s:y="35" s:pid="S"/>
    <g s:x="20" s:y="20" s:pid="Y"/>
  </g>
  <g s:type="mux" transform="translate(541.3333333333334,386.5)" s:width="20" s:height="40" id="cell_$ternary$riscv_ooo_core/rtl/common_data_bus.v:62$9">
    <s:alias val="$pmux"/>
    <s:alias val="$mux"/>
    <s:alias val="$_MUX_"/>
    <path d="M0,0 L20,10 L20,30 L0,40 Z" class="cell_$ternary$riscv_ooo_core/rtl/common_data_bus.v:62$9"/>
    <g s:x="0" s:y="10" s:pid="A"/>
    <g s:x="0" s:y="30" s:pid="B"/>
    <g s:x="10" s:y="35" s:pid="S"/>
    <g s:x="20" s:y="20" s:pid="Y"/>
  </g>
  <g s:type="mux" transform="translate(541.3333333333334,33)" s:width="20" s:height="40" id="cell_$ternary$riscv_ooo_core/rtl/common_data_bus.v:63$10">
    <s:alias val="$pmux"/>
    <s:alias val="$mux"/>
    <s:alias val="$_MUX_"/>
    <path d="M0,0 L20,10 L20,30 L0,40 Z" class="cell_$ternary$riscv_ooo_core/rtl/common_data_bus.v:63$10"/>
    <g s:x="0" s:y="10" s:pid="A"/>
    <g s:x="0" s:y="30" s:pid="B"/>
    <g s:x="10" s:y="35" s:pid="S"/>
    <g s:x="20" s:y="20" s:pid="Y"/>
  </g>
  <g s:type="inputExt" transform="translate(538,331.5)" s:width="30" s:height="20" id="cell_clk">
    <text x="15" y="-4" class="nodelabel cell_clk" s:attribute="ref">clk</text>
    <s:alias val="$_inputExt_"/>
    <path d="M0,0 L0,20 L15,20 L30,10 L15,0 Z" class="cell_clk"/>
    <g s:x="28" s:y="10" s:pid="Y"/>
  </g>
  <g s:type="inputExt" transform="translate(455,301.5)" s:width="30" s:height="20" id="cell_rst_n">
    <text x="15" y="-4" class="nodelabel cell_rst_n" s:attribute="ref">rst_n</text>
    <s:alias val="$_inputExt_"/>
    <path d="M0,0 L0,20 L15,20 L30,10 L15,0 Z" class="cell_rst_n"/>
    <g s:x="28" s:y="10" s:pid="Y"/>
  </g>
  <g s:type="inputExt" transform="translate(12,337.5)" s:width="30" s:height="20" id="cell_fu0_valid">
    <text x="15" y="-4" class="nodelabel cell_fu0_valid" s:attribute="ref">fu0_valid</text>
    <s:alias val="$_inputExt_"/>
    <path d="M0,0 L0,20 L15,20 L30,10 L15,0 Z" class="cell_fu0_valid"/>
    <g s:x="28" s:y="10" s:pid="Y"/>
  </g>
  <g s:type="inputExt" transform="translate(455,451.5)" s:width="30" s:height="20" id="cell_fu0_tag">
    <text x="15" y="-4" class="nodelabel cell_fu0_tag" s:attribute="ref">fu0_tag</text>
    <s:alias val="$_inputExt_"/>
    <path d="M0,0 L0,20 L15,20 L30,10 L15,0 Z" class="cell_fu0_tag"/>
    <g s:x="28" s:y="10" s:pid="Y"/>
  </g>
  <g s:type="inputExt" transform="translate(455,98)" s:width="30" s:height="20" id="cell_fu0_data">
    <text x="15" y="-4" class="nodelabel cell_fu0_data" s:attribute="ref">fu0_data</text>
    <s:alias val="$_inputExt_"/>
    <path d="M0,0 L0,20 L15,20 L30,10 L15,0 Z" class="cell_fu0_data"/>
    <g s:x="28" s:y="10" s:pid="Y"/>
  </g>
  <g s:type="outputExt" transform="translate(603,128)" s:width="30" s:height="20" id="cell_fu0_grant">
    <text x="15" y="-4" class="nodelabel cell_fu0_grant" s:attribute="ref">fu0_grant</text>
    <s:alias val="$_outputExt_"/>
    <path d="M30,0 L30,20 L15,20 L0,10 L15,0 Z" class="cell_fu0_grant"/>
    <g s:x="0" s:y="10" s:pid="A"/>
  </g>
  <g s:type="inputExt" transform="translate(101,532.5)" s:width="30" s:height="20" id="cell_fu1_valid">
    <text x="15" y="-4" class="nodelabel cell_fu1_valid" s:attribute="ref">fu1_valid</text>
    <s:alias val="$_inputExt_"/>
    <path d="M0,0 L0,20 L15,20 L30,10 L15,0 Z" class="cell_fu1_valid"/>
    <g s:x="28" s:y="10" s:pid="Y"/>
  </g>
  <g s:type="inputExt" transform="translate(455,386.5)" s:width="30" s:height="20" id="cell_fu1_tag">
    <text x="15" y="-4" class="nodelabel cell_fu1_tag" s:attribute="ref">fu1_tag</text>
    <s:alias val="$_inputExt_"/>
    <path d="M0,0 L0,20 L15,20 L30,10 L15,0 Z" class="cell_fu1_tag"/>
    <g s:x="28" s:y="10" s:pid="Y"/>
  </g>
  <g s:type="inputExt" transform="translate(455,33)" s:width="30" s:height="20" id="cell_fu1_data">
    <text x="15" y="-4" class="nodelabel cell_fu1_data" s:attribute="ref">fu1_data</text>
    <s:alias val="$_inputExt_"/>
    <path d="M0,0 L0,20 L15,20 L30,10 L15,0 Z" class="cell_fu1_data"/>
    <g s:x="28" s:y="10" s:pid="Y"/>
  </g>
  <g s:type="outputExt" transform="translate(603,601)" s:width="30" s:height="20" id="cell_fu1_grant">
    <text x="15" y="-4" class="nodelabel cell_fu1_grant" s:attribute="ref">fu1_grant</text>
    <s:alias val="$_outputExt_"/>
    <path d="M30,0 L30,20 L15,20 L0,10 L15,0 Z" class="cell_fu1_grant"/>
    <g s:x="0" s:y="10" s:pid="A"/>
  </g>
  <g s:type="outputExt" transform="translate(603,536)" s:width="30" s:height="20" id="cell_cdb_valid">
    <text x="15" y="-4" class="nodelabel cell_cdb_valid" s:attribute="ref">cdb_valid</text>
    <s:alias val="$_outputExt_"/>
    <path d="M30,0 L30,20 L15,20 L0,10 L15,0 Z" class="cell_cdb_valid"/>
    <g s:x="0" s:y="10" s:pid="A"/>
  </g>
  <g s:type="outputExt" transform="translate(603,396.5)" s:width="30" s:height="20" id="cell_cdb_tag">
    <text x="15" y="-4" class="nodelabel cell_cdb_tag" s:attribute="ref">cdb_tag</text>
    <s:alias val="$_outputExt_"/>
    <path d="M30,0 L30,20 L15,20 L0,10 L15,0 Z" class="cell_cdb_tag"/>
    <g s:x="0" s:y="10" s:pid="A"/>
  </g>
  <g s:type="outputExt" transform="translate(603,43)" s:width="30" s:height="20" id="cell_cdb_data">
    <text x="15" y="-4" class="nodelabel cell_cdb_data" s:attribute="ref">cdb_data</text>
    <s:alias val="$_outputExt_"/>
    <path d="M30,0 L30,20 L15,20 L0,10 L15,0 Z" class="cell_cdb_data"/>
    <g s:x="0" s:y="10" s:pid="A"/>
  </g>
  <g s:type="constant" transform="translate(320,512.5)" s:width="30" s:height="20" id="cell_0">
    <text x="15" y="-4" class="nodelabel cell_0" s:attribute="ref">0</text>
    <s:alias val="$_constant_"/>
    <rect width="30" height="20" class="cell_0"/>
    <g s:x="30" s:y="10" s:pid="Y"/>
  </g>
  <g s:type="constant" transform="translate(390,214)" s:width="30" s:height="20" id="cell_1">
    <text x="15" y="-4" class="nodelabel cell_1" s:attribute="ref">1</text>
    <s:alias val="$_constant_"/>
    <rect width="30" height="20" class="cell_1"/>
    <g s:x="30" s:y="10" s:pid="Y"/>
  </g>
  <line x1="40" x2="76" y1="347.5" y2="347.5" class="net_4"/>
  <line x1="76" x2="76" y1="347.5" y2="266.5" class="net_4"/>
  <circle cx="76" cy="347.5" r="2" style="fill:#000" class="net_4"/>
  <line x1="76" x2="320" y1="266.5" y2="266.5" class="net_4"/>
  <line x1="40" x2="76" y1="347.5" y2="347.5" class="net_4"/>
  <line x1="76" x2="76" y1="347.5" y2="592" class="net_4"/>
  <line x1="76" x2="295" y1="592" y2="592" class="net_4"/>
  <line x1="295" x2="295" y1="592" y2="584.5" class="net_4"/>
  <line x1="295" x2="320" y1="584.5" y2="584.5" class="net_4"/>
  <line x1="40" x2="113" y1="347.5" y2="347.5" class="net_4"/>
  <line x1="285" x2="295" y1="290" y2="290" class="net_117"/>
  <line x1="295" x2="295" y1="290" y2="281.5" class="net_117"/>
  <line x1="295" x2="320" y1="281.5" y2="281.5" class="net_117"/>
  <line x1="129" x2="240" y1="542.5" y2="542.5" class="net_42"/>
  <line x1="240" x2="240" y1="542.5" y2="562" class="net_42"/>
  <circle cx="240" cy="542.5" r="2" style="fill:#000" class="net_42"/>
  <line x1="240" x2="255" y1="562" y2="562" class="net_42"/>
  <line x1="129" x2="370" y1="542.5" y2="542.5" class="net_42"/>
  <line x1="370" x2="370" y1="542.5" y2="289" class="net_42"/>
  <line x1="370" x2="390" y1="289" y2="289" class="net_42"/>
  <line x1="129" x2="165" y1="542.5" y2="542.5" class="net_42"/>
  <line x1="165" x2="165" y1="542.5" y2="412.5" class="net_42"/>
  <circle cx="165" cy="542.5" r="2" style="fill:#000" class="net_42"/>
  <line x1="165" x2="190" y1="412.5" y2="412.5" class="net_42"/>
  <line x1="220" x2="230" y1="355" y2="355" class="net_118"/>
  <line x1="230" x2="230" y1="355" y2="577" class="net_118"/>
  <line x1="230" x2="255" y1="577" y2="577" class="net_118"/>
  <line x1="350" x2="390" y1="274" y2="274" class="net_41"/>
  <line x1="350" x2="380" y1="274" y2="274" class="net_41"/>
  <line x1="380" x2="380" y1="274" y2="481.5" class="net_41"/>
  <line x1="380" x2="513" y1="481.5" y2="481.5" class="net_41"/>
  <line x1="513" x2="513" y1="481.5" y2="538.5" class="net_41"/>
  <circle cx="380" cy="274" r="2" style="fill:#000" class="net_41"/>
  <circle cx="513" cy="481.5" r="2" style="fill:#000" class="net_41"/>
  <line x1="513" x2="541" y1="538.5" y2="538.5" class="net_41"/>
  <line x1="350" x2="380" y1="274" y2="274" class="net_41"/>
  <line x1="380" x2="380" y1="274" y2="481.5" class="net_41"/>
  <line x1="380" x2="551.3333333333334" y1="481.5" y2="481.5" class="net_41"/>
  <line x1="551.3333333333334" x2="551.3333333333334" y1="481.5" y2="421.5" class="net_41"/>
  <line x1="350" x2="380" y1="274" y2="274" class="net_41"/>
  <line x1="380" x2="380" y1="274" y2="128" class="net_41"/>
  <line x1="380" x2="551.3333333333334" y1="128" y2="128" class="net_41"/>
  <line x1="551.3333333333334" x2="551.3333333333334" y1="128" y2="68" class="net_41"/>
  <line x1="350" x2="380" y1="274" y2="274" class="net_41"/>
  <line x1="380" x2="380" y1="274" y2="128" class="net_41"/>
  <line x1="380" x2="513" y1="128" y2="128" class="net_41"/>
  <line x1="513" x2="513" y1="128" y2="138" class="net_41"/>
  <circle cx="513" cy="128" r="2" style="fill:#000" class="net_41"/>
  <line x1="513" x2="603" y1="138" y2="138" class="net_41"/>
  <line x1="285" x2="320" y1="569.5" y2="569.5" class="net_79"/>
  <line x1="285" x2="305" y1="569.5" y2="569.5" class="net_79"/>
  <line x1="305" x2="305" y1="569.5" y2="553.5" class="net_79"/>
  <circle cx="305" cy="569.5" r="2" style="fill:#000" class="net_79"/>
  <line x1="305" x2="541" y1="553.5" y2="553.5" class="net_79"/>
  <line x1="285" x2="305" y1="569.5" y2="569.5" class="net_79"/>
  <line x1="305" x2="305" y1="569.5" y2="599.5" class="net_79"/>
  <line x1="305" x2="430" y1="599.5" y2="599.5" class="net_79"/>
  <line x1="430" x2="430" y1="599.5" y2="553.5" class="net_79"/>
  <line x1="430" x2="513" y1="553.5" y2="553.5" class="net_79"/>
  <line x1="513" x2="513" y1="553.5" y2="611" class="net_79"/>
  <circle cx="430" cy="553.5" r="2" style="fill:#000" class="net_79"/>
  <circle cx="513" cy="553.5" r="2" style="fill:#000" class="net_79"/>
  <line x1="513" x2="603" y1="611" y2="611" class="net_79"/>
  <line x1="633" x2="667" y1="193" y2="193" class="net_122"/>
  <line x1="667" x2="667" y1="193" y2="12" class="net_122"/>
  <line x1="667" x2="165" y1="12" y2="12" class="net_122"/>
  <line x1="165" x2="165" y1="12" y2="297.5" class="net_122"/>
  <circle cx="165" cy="297.5" r="2" style="fill:#000" class="net_122"/>
  <line x1="165" x2="190" y1="297.5" y2="297.5" class="net_122"/>
  <line x1="633" x2="667" y1="193" y2="193" class="net_122"/>
  <line x1="667" x2="667" y1="193" y2="12" class="net_122"/>
  <line x1="667" x2="165" y1="12" y2="12" class="net_122"/>
  <line x1="165" x2="165" y1="12" y2="362.5" class="net_122"/>
  <circle cx="667" cy="193" r="2" style="fill:#000" class="net_122"/>
  <line x1="165" x2="193" y1="362.5" y2="362.5" class="net_122"/>
  <line x1="633" x2="667" y1="193" y2="193" class="net_122"/>
  <line x1="667" x2="667" y1="193" y2="631" class="net_122"/>
  <line x1="667" x2="380" y1="631" y2="631" class="net_122"/>
  <line x1="380" x2="380" y1="631" y2="502.5" class="net_122"/>
  <line x1="380" x2="396.6666666666667" y1="502.5" y2="502.5" class="net_122"/>
  <line x1="215" x2="240" y1="412.5" y2="412.5" class="net_121"/>
  <line x1="240" x2="240" y1="412.5" y2="282.5" class="net_121"/>
  <line x1="240" x2="258" y1="282.5" y2="282.5" class="net_121"/>
  <line x1="215" x2="258" y1="297.5" y2="297.5" class="net_123"/>
  <line x1="138" x2="193" y1="347.5" y2="347.5" class="net_124"/>
  <line x1="566" x2="578" y1="341.5" y2="341.5" class="net_2"/>
  <line x1="578" x2="578" y1="341.5" y2="213" class="net_2"/>
  <line x1="578" x2="603" y1="213" y2="213" class="net_2"/>
  <line x1="561.3333333333334" x2="603" y1="193" y2="193" class="net_125"/>
  <line x1="350" x2="396.6666666666667" y1="522.5" y2="522.5" class="net_128"/>
  <line x1="350" x2="360" y1="522.5" y2="522.5" class="net_128"/>
  <line x1="360" x2="360" y1="522.5" y2="183" class="net_128"/>
  <circle cx="360" cy="522.5" r="2" style="fill:#000" class="net_128"/>
  <line x1="360" x2="541.3333333333334" y1="183" y2="183" class="net_128"/>
  <line x1="350" x2="406.6666666666667" y1="577" y2="577" class="net_120"/>
  <line x1="406.6666666666667" x2="406.6666666666667" y1="577" y2="527.5" class="net_120"/>
  <line x1="416.6666666666667" x2="430" y1="512.5" y2="512.5" class="net_126"/>
  <line x1="430" x2="430" y1="512.5" y2="204" class="net_126"/>
  <line x1="430" x2="464.3333333333333" y1="204" y2="204" class="net_126"/>
  <line x1="420" x2="464.3333333333333" y1="224" y2="224" class="net_129"/>
  <line x1="420" x2="474.3333333333333" y1="281.5" y2="281.5" class="net_119"/>
  <line x1="474.3333333333333" x2="474.3333333333333" y1="281.5" y2="229" class="net_119"/>
  <line x1="484.3333333333333" x2="513" y1="214" y2="214" class="net_127"/>
  <line x1="513" x2="513" y1="214" y2="203" class="net_127"/>
  <line x1="513" x2="541.3333333333334" y1="203" y2="203" class="net_127"/>
  <line x1="483" x2="551.3333333333334" y1="311.5" y2="311.5" class="net_3"/>
  <line x1="551.3333333333334" x2="551.3333333333334" y1="311.5" y2="208" class="net_3"/>
  <line x1="483" x2="541.3333333333334" y1="396.5" y2="396.5" class="net_43,44,45,46"/>
  <line x1="483" x2="513" y1="461.5" y2="461.5" class="net_5,6,7,8"/>
  <line x1="513" x2="513" y1="461.5" y2="416.5" class="net_5,6,7,8"/>
  <line x1="513" x2="541.3333333333334" y1="416.5" y2="416.5" class="net_5,6,7,8"/>
  <line x1="483" x2="541.3333333333334" y1="43" y2="43" class="net_47,48,49,50,51,52,53,54,55,56,57,58,59,60,61,62,63,64,65,66,67,68,69,70,71,72,73,74,75,76,77,78"/>
  <line x1="483" x2="513" y1="108" y2="108" class="net_9,10,11,12,13,14,15,16,17,18,19,20,21,22,23,24,25,26,27,28,29,30,31,32,33,34,35,36,37,38,39,40"/>
  <line x1="513" x2="513" y1="108" y2="63" class="net_9,10,11,12,13,14,15,16,17,18,19,20,21,22,23,24,25,26,27,28,29,30,31,32,33,34,35,36,37,38,39,40"/>
  <line x1="513" x2="541.3333333333334" y1="63" y2="63" class="net_9,10,11,12,13,14,15,16,17,18,19,20,21,22,23,24,25,26,27,28,29,30,31,32,33,34,35,36,37,38,39,40"/>
  <line x1="568" x2="603" y1="546" y2="546" class="net_80"/>
  <line x1="561.3333333333334" x2="603" y1="406.5" y2="406.5" class="net_81,82,83,84"/>
  <line x1="561.3333333333334" x2="603" y1="53" y2="53" class="net_85,86,87,88,89,90,91,92,93,94,95,96,97,98,99,100,101,102,103,104,105,106,107,108,109,110,111,112,113,114,115,116"/>
</svg>
