<svg xmlns="http://www.w3.org/2000/svg" xmlns:xlink="http://www.w3.org/1999/xlink" xmlns:s="https://github.com/nturley/netlistsvg" width="687" height="1248">
  <rect id="__whitebg__" x="0" y="0" width="100%" height="100%" fill="#ffffff"/>
  <style>svg {
    stroke:#000;
    fill:none;
  }
  text {
    fill:#000;
    stroke:none;
    font-size:10px;
    font-weight: bold;
    font-family: "Courier New", monospace;
  }
  .nodelabel {
    text-anchor: middle;
  }
  .inputPortLabel {
    text-anchor: end;
  }
  .splitjoinBody {
    fill:#000;
  }</style>
  <g s:type="eq" transform="translate(202.66666666666666,128)" s:width="25" s:height="25" id="cell_$eq$riscv_ooo_core/rtl/decoder.v:54$1">
    <s:alias val="$eq"/>
    <circle r="12.5" cx="12.5" cy="12.5" class="cell_$eq$riscv_ooo_core/rtl/decoder.v:54$1"/>
    <line x1="7.5" x2="17.5" y1="10" y2="10" class="cell_$eq$riscv_ooo_core/rtl/decoder.v:54$1"/>
    <line x1="7.5" x2="17.5" y1="15" y2="15" class="cell_$eq$riscv_ooo_core/rtl/decoder.v:54$1"/>
    <g s:x="3" s:y="5" s:pid="A"/>
    <g s:x="3" s:y="20" s:pid="B"/>
    <g s:x="25" s:y="12.5" s:pid="Y"/>
  </g>
  <g s:type="eq" transform="translate(272.6666666666667,235.5)" s:width="25" s:height="25" id="cell_$eq$riscv_ooo_core/rtl/decoder.v:77$3">
    <s:alias val="$eq"/>
    <circle r="12.5" cx="12.5" cy="12.5" class="cell_$eq$riscv_ooo_core/rtl/decoder.v:77$3"/>
    <line x1="7.5" x2="17.5" y1="10" y2="10" class="cell_$eq$riscv_ooo_core/rtl/decoder.v:77$3"/>
    <line x1="7.5" x2="17.5" y1="15" y2="15" class="cell_$eq$riscv_ooo_core/rtl/decoder.v:77$3"/>
    <g s:x="3" s:y="5" s:pid="A"/>
    <g s:x="3" s:y="20" s:pid="B"/>
    <g s:x="25" s:y="12.5" s:pid="Y"/>
  </g>
  <g s:type="eq" transform="translate(402.6666666666667,281.5)" s:width="25" s:height="25" id="cell_$eq$riscv_ooo_core/rtl/decoder.v:78$7">
    <s:alias val="$eq"/>
    <circle r="12.5" cx="12.5" cy="12.5" class="cell_$eq$riscv_ooo_core/rtl/decoder.v:78$7"/>
    <line x1="7.5" x2="17.5" y1="10" y2="10" class="cell_$eq$riscv_ooo_core/rtl/decoder.v:78$7"/>
    <line x1="7.5" x2="17.5" y1="15" y2="15" class="cell_$eq$riscv_ooo_core/rtl/decoder.v:78$7"/>
    <g s:x="3" s:y="5" s:pid="A"/>
    <g s:x="3" s:y="20" s:pid="B"/>
    <g s:x="25" s:y="12.5" s:pid="Y"/>
  </g>
  <g s:type="eq" transform="translate(402.6666666666667,483)" s:width="25" s:height="25" id="cell_$eq$riscv_ooo_core/rtl/decoder.v:80$10">
    <s:alias val="$eq"/>
    <circle r="12.5" cx="12.5" cy="12.5" class="cell_$eq$riscv_ooo_core/rtl/decoder.v:80$10"/>
    <line x1="7.5" x2="17.5" y1="10" y2="10" class="cell_$eq$riscv_ooo_core/rtl/decoder.v:80$10"/>
    <line x1="7.5" x2="17.5" y1="15" y2="15" class="cell_$eq$riscv_ooo_core/rtl/decoder.v:80$10"/>
    <g s:x="3" s:y="5" s:pid="A"/>
    <g s:x="3" s:y="20" s:pid="B"/>
    <g s:x="25" s:y="12.5" s:pid="Y"/>
  </g>
  <g s:type="and" transform="translate(336,228)" s:width="30" s:height="25" id="cell_$logic_and$riscv_ooo_core/rtl/decoder.v:77$4">
    <s:alias val="$and"/>
    <s:alias val="$logic_and"/>
    <s:alias val="$_AND_"/>
    <path d="M0,0 L0,25 L15,25 A15 12.5 0 0 0 15,0 Z" class="cell_$logic_and$riscv_ooo_core/rtl/decoder.v:77$4"/>
    <g s:x="0" s:y="5" s:pid="A"/>
    <g s:x="0" s:y="20" s:pid="B"/>
    <g s:x="30" s:y="12.5" s:pid="Y"/>
  </g>
  <g s:type="and" transform="translate(467,185.5)" s:width="30" s:height="25" id="cell_$logic_and$riscv_ooo_core/rtl/decoder.v:78$6">
    <s:alias val="$and"/>
    <s:alias val="$logic_and"/>
    <s:alias val="$_AND_"/>
    <path d="M0,0 L0,25 L15,25 A15 12.5 0 0 0 15,0 Z" class="cell_$logic_and$riscv_ooo_core/rtl/decoder.v:78$6"/>
    <g s:x="0" s:y="5" s:pid="A"/>
    <g s:x="0" s:y="20" s:pid="B"/>
    <g s:x="30" s:y="12.5" s:pid="Y"/>
  </g>
  <g s:type="and" transform="translate(467,265.5)" s:width="30" s:height="25" id="cell_$logic_and$riscv_ooo_core/rtl/decoder.v:78$8">
    <s:alias val="$and"/>
    <s:alias val="$logic_and"/>
    <s:alias val="$_AND_"/>
    <path d="M0,0 L0,25 L15,25 A15 12.5 0 0 0 15,0 Z" class="cell_$logic_and$riscv_ooo_core/rtl/decoder.v:78$8"/>
    <g s:x="0" s:y="5" s:pid="A"/>
    <g s:x="0" s:y="20" s:pid="B"/>
    <g s:x="30" s:y="12.5" s:pid="Y"/>
  </g>
  <g s:type="and" transform="translate(467,467)" s:width="30" s:height="25" id="cell_$logic_and$riscv_ooo_core/rtl/decoder.v:80$11">
    <s:alias val="$and"/>
    <s:alias val="$logic_and"/>
    <s:alias val="$_AND_"/>
    <path d="M0,0 L0,25 L15,25 A15 12.5 0 0 0 15,0 Z" class="cell_$logic_and$riscv_ooo_core/rtl/decoder.v:80$11"/>
    <g s:x="0" s:y="5" s:pid="A"/>
    <g s:x="0" s:y="20" s:pid="B"/>
    <g s:x="30" s:y="12.5" s:pid="Y"/>
  </g>
  <g s:type="not" transform="translate(271,180.5)" s:width="30" s:height="20" id="cell_$logic_not$riscv_ooo_core/rtl/decoder.v:55$2">
    <s:alias val="$_NOT_"/>
    <s:alias val="$not"/>
    <s:alias val="$logic_not"/>
    <path d="M0,0 L0,20 L20,10 Z" class="cell_$logic_not$riscv_ooo_core/rtl/decoder.v:55$2"/>
    <circle cx="23" cy="10" r="3" class="cell_$logic_not$riscv_ooo_core/rtl/decoder.v:55$2"/>
    <g s:x="0" s:y="10" s:pid="A"/>
    <g s:x="25" s:y="10" s:pid="Y"/>
  </g>
  <g s:type="not" transform="translate(401,230.5)" s:width="30" s:height="20" id="cell_$logic_not$riscv_ooo_core/rtl/decoder.v:78$5">
    <s:alias val="$_NOT_"/>
    <s:alias val="$not"/>
    <s:alias val="$logic_not"/>
    <path d="M0,0 L0,20 L20,10 Z" class="cell_$logic_not$riscv_ooo_core/rtl/decoder.v:78$5"/>
    <circle cx="23" cy="10" r="3" class="cell_$logic_not$riscv_ooo_core/rtl/decoder.v:78$5"/>
    <g s:x="0" s:y="10" s:pid="A"/>
    <g s:x="25" s:y="10" s:pid="Y"/>
  </g>
  <g s:type="or" transform="translate(532,193)" s:width="30" s:height="25" id="cell_$logic_or$riscv_ooo_core/rtl/decoder.v:78$9">
    <s:alias val="$or"/>
    <s:alias val="$logic_or"/>
    <s:alias val="$_OR_"/>
    <path d="M0,25 L0,25 L15,25 A15 12.5 0 0 0 15,0 L0,0" class="cell_$logic_or$riscv_ooo_core/rtl/decoder.v:78$9"/>
    <path d="M0,0 A30 25 0 0 1 0,25" class="cell_$logic_or$riscv_ooo_core/rtl/decoder.v:78$9"/>
    <g s:x="3" s:y="5" s:pid="A"/>
    <g s:x="3" s:y="20" s:pid="B"/>
    <g s:x="30" s:y="12.5" s:pid="Y"/>
  </g>
  <g s:type="mux" transform="translate(535.3333333333334,361.5)" s:width="20" s:height="40" id="cell_$ternary$riscv_ooo_core/rtl/decoder.v:84$12">
    <s:alias val="$pmux"/>
    <s:alias val="$mux"/>
    <s:alias val="$_MUX_"/>
    <path d="M0,0 L20,10 L20,30 L0,40 Z" class="cell_$ternary$riscv_ooo_core/rtl/decoder.v:84$12"/>
    <g s:x="0" s:y="10" s:pid="A"/>
    <g s:x="0" s:y="30" s:pid="B"/>
    <g s:x="10" s:y="35" s:pid="S"/>
    <g s:x="20" s:y="20" s:pid="Y"/>
  </g>
  <g s:type="inputExt" transform="translate(12,361.5)" s:width="30" s:height="20" id="cell_instr_in">
    <text x="15" y="-4" class="nodelabel cell_instr_in" s:attribute="ref">instr_in</text>
    <s:alias val="$_inputExt_"/>
    <path d="M0,0 L0,20 L15,20 L30,10 L15,0 Z" class="cell_instr_in"/>
    <g s:x="28" s:y="10" s:pid="Y"/>
  </g>
  <g s:type="outputExt" transform="translate(597,371.5)" s:width="30" s:height="20" id="cell_instr_out">
    <text x="15" y="-4" class="nodelabel cell_instr_out" s:attribute="ref">instr_out</text>
    <s:alias val="$_outputExt_"/>
    <path d="M30,0 L30,20 L15,20 L0,10 L15,0 Z" class="cell_instr_out"/>
    <g s:x="0" s:y="10" s:pid="A"/>
  </g>
  <g s:type="outputExt" transform="translate(597,479.5)" s:width="30" s:height="20" id="cell_instr_use_imm">
    <text x="15" y="-4" class="nodelabel cell_instr_use_imm" s:attribute="ref">instr_use_imm</text>
    <s:alias val="$_outputExt_"/>
    <path d="M30,0 L30,20 L15,20 L0,10 L15,0 Z" class="cell_instr_use_imm"/>
    <g s:x="0" s:y="10" s:pid="A"/>
  </g>
  <g s:type="outputExt" transform="translate(597,626.5)" s:width="30" s:height="20" id="cell_instr_imm">
    <text x="15" y="-4" class="nodelabel cell_instr_imm" s:attribute="ref">instr_imm</text>
    <s:alias val="$_outputExt_"/>
    <path d="M30,0 L30,20 L15,20 L0,10 L15,0 Z" class="cell_instr_imm"/>
    <g s:x="0" s:y="10" s:pid="A"/>
  </g>
  <g s:type="outputExt" transform="translate(597,65.5)" s:width="30" s:height="20" id="cell_is_alu">
    <text x="15" y="-4" class="nodelabel cell_is_alu" s:attribute="ref">is_alu</text>
    <s:alias val="$_outputExt_"/>
    <path d="M30,0 L30,20 L15,20 L0,10 L15,0 Z" class="cell_is_alu"/>
    <g s:x="0" s:y="10" s:pid="A"/>
  </g>
  <g s:type="outputExt" transform="translate(597,130.5)" s:width="30" s:height="20" id="cell_is_ext">
    <text x="15" y="-4" class="nodelabel cell_is_ext" s:attribute="ref">is_ext</text>
    <s:alias val="$_outputExt_"/>
    <path d="M30,0 L30,20 L15,20 L0,10 L15,0 Z" class="cell_is_ext"/>
    <g s:x="0" s:y="10" s:pid="A"/>
  </g>
  <g s:type="outputExt" transform="translate(597,306.5)" s:width="30" s:height="20" id="cell_ext_class">
    <text x="15" y="-4" class="nodelabel cell_ext_class" s:attribute="ref">ext_class</text>
    <s:alias val="$_outputExt_"/>
    <path d="M30,0 L30,20 L15,20 L0,10 L15,0 Z" class="cell_ext_class"/>
    <g s:x="0" s:y="10" s:pid="A"/>
  </g>
  <g s:type="outputExt" transform="translate(597,195.5)" s:width="30" s:height="20" id="cell_supported">
    <text x="15" y="-4" class="nodelabel cell_supported" s:attribute="ref">supported</text>
    <s:alias val="$_outputExt_"/>
    <path d="M30,0 L30,20 L15,20 L0,10 L15,0 Z" class="cell_supported"/>
    <g s:x="0" s:y="10" s:pid="A"/>
  </g>
  <g s:type="outputExt" transform="translate(597,1021)" s:width="30" s:height="20" id="cell_ext_rd">
    <text x="15" y="-4" class="nodelabel cell_ext_rd" s:attribute="ref">ext_rd</text>
    <s:alias val="$_outputExt_"/>
    <path d="M30,0 L30,20 L15,20 L0,10 L15,0 Z" class="cell_ext_rd"/>
    <g s:x="0" s:y="10" s:pid="A"/>
  </g>
  <g s:type="outputExt" transform="translate(597,1086)" s:width="30" s:height="20" id="cell_ext_rs1">
    <text x="15" y="-4" class="nodelabel cell_ext_rs1" s:attribute="ref">ext_rs1</text>
    <s:alias val="$_outputExt_"/>
    <path d="M30,0 L30,20 L15,20 L0,10 L15,0 Z" class="cell_ext_rs1"/>
    <g s:x="0" s:y="10" s:pid="A"/>
  </g>
  <g s:type="outputExt" transform="translate(597,1151)" s:width="30" s:height="20" id="cell_ext_rs2">
    <text x="15" y="-4" class="nodelabel cell_ext_rs2" s:attribute="ref">ext_rs2</text>
    <s:alias val="$_outputExt_"/>
    <path d="M30,0 L30,20 L15,20 L0,10 L15,0 Z" class="cell_ext_rs2"/>
    <g s:x="0" s:y="10" s:pid="A"/>
  </g>
  <g s:type="outputExt" transform="translate(597,1216)" s:width="30" s:height="20" id="cell_ext_subcode">
    <text x="15" y="-4" class="nodelabel cell_ext_subcode" s:attribute="ref">ext_subcode</text>
    <s:alias val="$_outputExt_"/>
    <path d="M30,0 L30,20 L15,20 L0,10 L15,0 Z" class="cell_ext_subcode"/>
    <g s:x="0" s:y="10" s:pid="A"/>
  </g>
  <g s:type="outputExt" transform="translate(597,561.5)" s:width="30" s:height="20" id="cell_ext_imm">
    <text x="15" y="-4" class="nodelabel cell_ext_imm" s:attribute="ref">ext_imm</text>
    <s:alias val="$_outputExt_"/>
    <path d="M30,0 L30,20 L15,20 L0,10 L15,0 Z" class="cell_ext_imm"/>
    <g s:x="0" s:y="10" s:pid="A"/>
  </g>
  <g s:type="constant" transform="translate(95,22)" s:width="30" s:height="20" id="cell_101">
    <text x="15" y="-4" class="nodelabel cell_101" s:attribute="ref">101</text>
    <s:alias val="$_constant_"/>
    <rect width="30" height="20" class="cell_101"/>
    <g s:x="30" s:y="10" s:pid="Y"/>
  </g>
  <g s:type="constant" transform="translate(201,73)" s:width="30" s:height="20" id="cell_110">
    <text x="15" y="-4" class="nodelabel cell_110" s:attribute="ref">110</text>
    <s:alias val="$_constant_"/>
    <rect width="30" height="20" class="cell_110"/>
    <g s:x="30" s:y="10" s:pid="Y"/>
  </g>
  <g s:type="constant" transform="translate(336,392.5)" s:width="30" s:height="20" id="cell_011">
    <text x="15" y="-4" class="nodelabel cell_011" s:attribute="ref">011</text>
    <s:alias val="$_constant_"/>
    <rect width="30" height="20" class="cell_011"/>
    <g s:x="30" s:y="10" s:pid="Y"/>
  </g>
  <g s:type="constant" transform="translate(401,392.5)" s:width="30" s:height="20" id="cell_0000000000000000000000">
    <text x="15" y="-4" class="nodelabel cell_0000000000000000000000" s:attribute="ref">0x0</text>
    <s:alias val="$_constant_"/>
    <rect width="30" height="20" class="cell_0000000000000000000000"/>
    <g s:x="30" s:y="10" s:pid="Y"/>
  </g>
  <g s:type="join" transform="translate(491,392)" s:width="4" s:height="40" id="cell_$join$,89,90,91,92,93,94,95,96,97,98,99,100,101,102,103,104,105,106,107,108,109,110,24,25,26,27,28,29,30,31,32,33,">
    <rect width="5" height="40" class="splitjoinBody" s:generic="body"/>
    <s:alias val="$_join_"/>
    <g s:x="5" s:y="20" s:pid="out"/>
    <g transform="translate(0,10)" s:x="0" s:y="10" s:pid="in0">
      <text x="-3" y="-4" class="inputPortLabel">0:21</text>
    </g>
    <g transform="translate(0,30)" s:x="0" s:y="10" s:pid="in0">
      <text x="-3" y="-4" class="inputPortLabel">22:31</text>
    </g>
  </g>
  <g s:type="join" transform="translate(533.5294117647059,551)" s:width="4" s:height="40" id="cell_$join$,2,3,4,5,6,7,8,9,10,11,12,12,12,12,12,12,12,12,12,12,12,12,12,12,12,12,12,12,12,12,12,12,">
    <rect width="5" height="440" class="splitjoinBody" s:generic="body"/>
    <s:alias val="$_join_"/>
    <g s:x="5" s:y="20" s:pid="out"/>
    <g transform="translate(0,10)" s:x="0" s:y="10" s:pid="in0">
      <text x="-3" y="-4" class="inputPortLabel">0:10</text>
    </g>
    <g transform="translate(0,30)" s:x="0" s:y="10" s:pid="in0">
      <text x="-3" y="-4" class="inputPortLabel">11</text>
    </g>
    <g transform="translate(0,50)" s:x="0" s:y="10" s:pid="in0">
      <text x="-3" y="-4" class="inputPortLabel">12</text>
    </g>
    <g transform="translate(0,70)" s:x="0" s:y="10" s:pid="in0">
      <text x="-3" y="-4" class="inputPortLabel">13</text>
    </g>
    <g transform="translate(0,90)" s:x="0" s:y="10" s:pid="in0">
      <text x="-3" y="-4" class="inputPortLabel">14</text>
    </g>
    <g transform="translate(0,110)" s:x="0" s:y="10" s:pid="in0">
      <text x="-3" y="-4" class="inputPortLabel">15</text>
    </g>
    <g transform="translate(0,130)" s:x="0" s:y="10" s:pid="in0">
      <text x="-3" y="-4" class="inputPortLabel">16</text>
    </g>
    <g transform="translate(0,150)" s:x="0" s:y="10" s:pid="in0">
      <text x="-3" y="-4" class="inputPortLabel">17</text>
    </g>
    <g transform="translate(0,170)" s:x="0" s:y="10" s:pid="in0">
      <text x="-3" y="-4" class="inputPortLabel">18</text>
    </g>
    <g transform="translate(0,190)" s:x="0" s:y="10" s:pid="in0">
      <text x="-3" y="-4" class="inputPortLabel">19</text>
    </g>
    <g transform="translate(0,210)" s:x="0" s:y="10" s:pid="in0">
      <text x="-3" y="-4" class="inputPortLabel">20</text>
    </g>
    <g transform="translate(0,230)" s:x="0" s:y="10" s:pid="in0">
      <text x="-3" y="-4" class="inputPortLabel">21</text>
    </g>
    <g transform="translate(0,250)" s:x="0" s:y="10" s:pid="in0">
      <text x="-3" y="-4" class="inputPortLabel">22</text>
    </g>
    <g transform="translate(0,270)" s:x="0" s:y="10" s:pid="in0">
      <text x="-3" y="-4" class="inputPortLabel">23</text>
    </g>
    <g transform="translate(0,290)" s:x="0" s:y="10" s:pid="in0">
      <text x="-3" y="-4" class="inputPortLabel">24</text>
    </g>
    <g transform="translate(0,310)" s:x="0" s:y="10" s:pid="in0">
      <text x="-3" y="-4" class="inputPortLabel">25</text>
    </g>
    <g transform="translate(0,330)" s:x="0" s:y="10" s:pid="in0">
      <text x="-3" y="-4" class="inputPortLabel">26</text>
    </g>
    <g transform="translate(0,350)" s:x="0" s:y="10" s:pid="in0">
      <text x="-3" y="-4" class="inputPortLabel">27</text>
    </g>
    <g transform="translate(0,370)" s:x="0" s:y="10" s:pid="in0">
      <text x="-3" y="-4" class="inputPortLabel">28</text>
    </g>
    <g transform="translate(0,390)" s:x="0" s:y="10" s:pid="in0">
      <text x="-3" y="-4" class="inputPortLabel">29</text>
    </g>
    <g transform="translate(0,410)" s:x="0" s:y="10" s:pid="in0">
      <text x="-3" y="-4" class="inputPortLabel">30</text>
    </g>
    <g transform="translate(0,430)" s:x="0" s:y="10" s:pid="in0">
      <text x="-3" y="-4" class="inputPortLabel">31</text>
    </g>
  </g>
  <g s:type="split" transform="translate(95,384.5)" s:width="5" s:height="40" id="cell_$split$,2,3,4,5,6,7,8,9,10,11,12,13,14,15,16,17,18,19,20,21,22,23,24,25,26,27,28,29,30,31,32,33,">
    <rect width="5" height="180" class="splitjoinBody" s:generic="body"/>
    <s:alias val="$_split_"/>
    <g s:x="0" s:y="20" s:pid="in"/>
    <g transform="translate(4,10)" s:x="4" s:y="10" s:pid="out0">
      <text x="5" y="-4">14:16</text>
    </g>
    <g transform="translate(4,30)" s:x="4" s:y="10" s:pid="out0">
      <text x="5" y="-4">11:13</text>
    </g>
    <g transform="translate(4,50)" s:x="4" s:y="10" s:pid="out0">
      <text x="5" y="-4">22:31</text>
    </g>
    <g transform="translate(4,70)" s:x="4" s:y="10" s:pid="out0">
      <text x="5" y="-4">0:10</text>
    </g>
    <g transform="translate(4,90)" s:x="4" s:y="10" s:pid="out0">
      <text x="5" y="-4">10</text>
    </g>
    <g transform="translate(4,110)" s:x="4" s:y="10" s:pid="out0">
      <text x="5" y="-4">27:31</text>
    </g>
    <g transform="translate(4,130)" s:x="4" s:y="10" s:pid="out0">
      <text x="5" y="-4">22:26</text>
    </g>
    <g transform="translate(4,150)" s:x="4" s:y="10" s:pid="out0">
      <text x="5" y="-4">17:21</text>
    </g>
    <g transform="translate(4,170)" s:x="4" s:y="10" s:pid="out0">
      <text x="5" y="-4">27:29</text>
    </g>
  </g>
  <line x1="99.5" x2="99.5" y1="394.5" y2="52" class="net_16,17,18"/>
  <line x1="99.5" x2="151" y1="52" y2="52" class="net_16,17,18"/>
  <line x1="151" x2="151" y1="52" y2="133" class="net_16,17,18"/>
  <circle cx="151" cy="52" r="2" style="fill:#000" class="net_16,17,18"/>
  <line x1="151" x2="205.66666666666666" y1="133" y2="133" class="net_16,17,18"/>
  <line x1="99.5" x2="99.5" y1="394.5" y2="52" class="net_16,17,18"/>
  <line x1="99.5" x2="261" y1="52" y2="52" class="net_16,17,18"/>
  <line x1="261" x2="261" y1="52" y2="240.5" class="net_16,17,18"/>
  <line x1="261" x2="275.6666666666667" y1="240.5" y2="240.5" class="net_16,17,18"/>
  <line x1="125" x2="141" y1="32" y2="32" class="net_77,78,79"/>
  <line x1="141" x2="141" y1="32" y2="148" class="net_77,78,79"/>
  <line x1="141" x2="205.66666666666666" y1="148" y2="148" class="net_77,78,79"/>
  <line x1="231" x2="241" y1="83" y2="83" class="net_80,81,82"/>
  <line x1="241" x2="241" y1="83" y2="255.5" class="net_80,81,82"/>
  <line x1="241" x2="275.6666666666667" y1="255.5" y2="255.5" class="net_80,81,82"/>
  <line x1="100" x2="191" y1="415" y2="415" class="net_13,14,15"/>
  <line x1="191" x2="191" y1="415" y2="286.5" class="net_13,14,15"/>
  <circle cx="191" cy="415" r="2" style="fill:#000" class="net_13,14,15"/>
  <line x1="191" x2="405.6666666666667" y1="286.5" y2="286.5" class="net_13,14,15"/>
  <line x1="100" x2="191" y1="415" y2="415" class="net_13,14,15"/>
  <line x1="191" x2="191" y1="415" y2="488" class="net_13,14,15"/>
  <line x1="191" x2="405.6666666666667" y1="488" y2="488" class="net_13,14,15"/>
  <line x1="100" x2="191" y1="415" y2="415" class="net_13,14,15"/>
  <line x1="191" x2="191" y1="415" y2="286.5" class="net_13,14,15"/>
  <line x1="191" x2="386" y1="286.5" y2="286.5" class="net_13,14,15"/>
  <line x1="386" x2="386" y1="286.5" y2="316.5" class="net_13,14,15"/>
  <circle cx="386" cy="286.5" r="2" style="fill:#000" class="net_13,14,15"/>
  <line x1="386" x2="597" y1="316.5" y2="316.5" class="net_13,14,15"/>
  <line x1="366" x2="376" y1="402.5" y2="402.5" class="net_83,84,85"/>
  <line x1="376" x2="376" y1="402.5" y2="301.5" class="net_83,84,85"/>
  <circle cx="376" cy="402.5" r="2" style="fill:#000" class="net_83,84,85"/>
  <line x1="376" x2="405.6666666666667" y1="301.5" y2="301.5" class="net_83,84,85"/>
  <line x1="366" x2="376" y1="402.5" y2="402.5" class="net_83,84,85"/>
  <line x1="376" x2="376" y1="402.5" y2="503" class="net_83,84,85"/>
  <line x1="376" x2="405.6666666666667" y1="503" y2="503" class="net_83,84,85"/>
  <line x1="296" x2="311" y1="190.5" y2="190.5" class="net_67"/>
  <line x1="311" x2="311" y1="190.5" y2="233" class="net_67"/>
  <circle cx="311" cy="190.5" r="2" style="fill:#000" class="net_67"/>
  <line x1="311" x2="336" y1="233" y2="233" class="net_67"/>
  <line x1="296" x2="467" y1="190.5" y2="190.5" class="net_67"/>
  <line x1="296" x2="311" y1="190.5" y2="190.5" class="net_67"/>
  <line x1="311" x2="311" y1="190.5" y2="75.5" class="net_67"/>
  <line x1="311" x2="597" y1="75.5" y2="75.5" class="net_67"/>
  <line x1="297.6666666666667" x2="336" y1="248" y2="248" class="net_70"/>
  <line x1="426" x2="441" y1="240.5" y2="240.5" class="net_74"/>
  <line x1="441" x2="441" y1="240.5" y2="205.5" class="net_74"/>
  <line x1="441" x2="467" y1="205.5" y2="205.5" class="net_74"/>
  <line x1="227.66666666666666" x2="251" y1="140.5" y2="140.5" class="net_68"/>
  <line x1="251" x2="251" y1="140.5" y2="270.5" class="net_68"/>
  <circle cx="251" cy="140.5" r="2" style="fill:#000" class="net_68"/>
  <circle cx="251" cy="270.5" r="2" style="fill:#000" class="net_68"/>
  <line x1="251" x2="467" y1="270.5" y2="270.5" class="net_68"/>
  <line x1="227.66666666666666" x2="251" y1="140.5" y2="140.5" class="net_68"/>
  <line x1="251" x2="251" y1="140.5" y2="472" class="net_68"/>
  <line x1="251" x2="467" y1="472" y2="472" class="net_68"/>
  <line x1="227.66666666666666" x2="251" y1="140.5" y2="140.5" class="net_68"/>
  <line x1="251" x2="251" y1="140.5" y2="190.5" class="net_68"/>
  <circle cx="251" cy="190.5" r="2" style="fill:#000" class="net_68"/>
  <line x1="251" x2="271" y1="190.5" y2="190.5" class="net_68"/>
  <line x1="227.66666666666666" x2="597" y1="140.5" y2="140.5" class="net_68"/>
  <line x1="427.6666666666667" x2="441" y1="294" y2="294" class="net_71"/>
  <line x1="441" x2="441" y1="294" y2="285.5" class="net_71"/>
  <line x1="441" x2="467" y1="285.5" y2="285.5" class="net_71"/>
  <line x1="427.6666666666667" x2="441" y1="495.5" y2="495.5" class="net_72"/>
  <line x1="441" x2="441" y1="495.5" y2="487" class="net_72"/>
  <line x1="441" x2="467" y1="487" y2="487" class="net_72"/>
  <line x1="366" x2="401" y1="240.5" y2="240.5" class="net_73"/>
  <line x1="497" x2="535" y1="198" y2="198" class="net_75"/>
  <line x1="497" x2="507" y1="278" y2="278" class="net_76"/>
  <line x1="507" x2="507" y1="278" y2="213" class="net_76"/>
  <line x1="507" x2="535" y1="213" y2="213" class="net_76"/>
  <line x1="40" x2="535.3333333333334" y1="371.5" y2="371.5" class="net_2,3,4,5,6,7,8,9,10,11,12,13,14,15,16,17,18,19,20,21,22,23,24,25,26,27,28,29,30,31,32,33"/>
  <line x1="40" x2="70" y1="371.5" y2="371.5" class="net_2,3,4,5,6,7,8,9,10,11,12,13,14,15,16,17,18,19,20,21,22,23,24,25,26,27,28,29,30,31,32,33"/>
  <line x1="70" x2="70" y1="371.5" y2="405" class="net_2,3,4,5,6,7,8,9,10,11,12,13,14,15,16,17,18,19,20,21,22,23,24,25,26,27,28,29,30,31,32,33"/>
  <circle cx="70" cy="371.5" r="2" style="fill:#000" class="net_2,3,4,5,6,7,8,9,10,11,12,13,14,15,16,17,18,19,20,21,22,23,24,25,26,27,28,29,30,31,32,33"/>
  <line x1="70" x2="95" y1="405" y2="405" class="net_2,3,4,5,6,7,8,9,10,11,12,13,14,15,16,17,18,19,20,21,22,23,24,25,26,27,28,29,30,31,32,33"/>
  <line x1="497" x2="507" y1="412.5" y2="412.5" class="net_89,90,91,92,93,94,95,96,97,98,99,100,101,102,103,104,105,106,107,108,109,110,24,25,26,27,28,29,30,31,32,33"/>
  <line x1="507" x2="507" y1="412.5" y2="391.5" class="net_89,90,91,92,93,94,95,96,97,98,99,100,101,102,103,104,105,106,107,108,109,110,24,25,26,27,28,29,30,31,32,33"/>
  <line x1="507" x2="535.3333333333334" y1="391.5" y2="391.5" class="net_89,90,91,92,93,94,95,96,97,98,99,100,101,102,103,104,105,106,107,108,109,110,24,25,26,27,28,29,30,31,32,33"/>
  <line x1="497" x2="545.3333333333334" y1="479.5" y2="479.5" class="net_66"/>
  <line x1="545.3333333333334" x2="545.3333333333334" y1="479.5" y2="396.5" class="net_66"/>
  <line x1="497" x2="507" y1="479.5" y2="479.5" class="net_66"/>
  <line x1="507" x2="507" y1="479.5" y2="489.5" class="net_66"/>
  <circle cx="507" cy="479.5" r="2" style="fill:#000" class="net_66"/>
  <line x1="507" x2="597" y1="489.5" y2="489.5" class="net_66"/>
  <line x1="555.3333333333334" x2="597" y1="381.5" y2="381.5" class="net_34,35,36,37,38,39,40,41,42,43,44,45,46,47,48,49,50,51,52,53,54,55,56,57,58,59,60,61,62,63,64,65"/>
  <line x1="539.5294117647059" x2="572" y1="571.5" y2="571.5" class="net_2,3,4,5,6,7,8,9,10,11,12,12,12,12,12,12,12,12,12,12,12,12,12,12,12,12,12,12,12,12,12,12"/>
  <line x1="572" x2="572" y1="571.5" y2="636.5" class="net_2,3,4,5,6,7,8,9,10,11,12,12,12,12,12,12,12,12,12,12,12,12,12,12,12,12,12,12,12,12,12,12"/>
  <circle cx="572" cy="571.5" r="2" style="fill:#000" class="net_2,3,4,5,6,7,8,9,10,11,12,12,12,12,12,12,12,12,12,12,12,12,12,12,12,12,12,12,12,12,12,12"/>
  <line x1="572" x2="597" y1="636.5" y2="636.5" class="net_2,3,4,5,6,7,8,9,10,11,12,12,12,12,12,12,12,12,12,12,12,12,12,12,12,12,12,12,12,12,12,12"/>
  <line x1="539.5294117647059" x2="597" y1="571.5" y2="571.5" class="net_2,3,4,5,6,7,8,9,10,11,12,12,12,12,12,12,12,12,12,12,12,12,12,12,12,12,12,12,12,12,12,12"/>
  <line x1="562" x2="597" y1="205.5" y2="205.5" class="net_69"/>
  <line x1="100" x2="161" y1="495" y2="495" class="net_29,30,31,32,33"/>
  <line x1="161" x2="161" y1="495" y2="1031" class="net_29,30,31,32,33"/>
  <line x1="161" x2="597" y1="1031" y2="1031" class="net_29,30,31,32,33"/>
  <line x1="100" x2="151" y1="515" y2="515" class="net_24,25,26,27,28"/>
  <line x1="151" x2="151" y1="515" y2="1096" class="net_24,25,26,27,28"/>
  <line x1="151" x2="597" y1="1096" y2="1096" class="net_24,25,26,27,28"/>
  <line x1="100" x2="141" y1="535" y2="535" class="net_19,20,21,22,23"/>
  <line x1="141" x2="141" y1="535" y2="1161" class="net_19,20,21,22,23"/>
  <line x1="141" x2="597" y1="1161" y2="1161" class="net_19,20,21,22,23"/>
  <line x1="99.5" x2="99.5" y1="555.5" y2="1226" class="net_29,30,31"/>
  <line x1="99.5" x2="597" y1="1226" y2="1226" class="net_29,30,31"/>
  <line x1="431" x2="491" y1="402.5" y2="402.5" class="net_89,90,91,92,93,94,95,96,97,98,99,100,101,102,103,104,105,106,107,108,109,110"/>
  <line x1="100" x2="441" y1="435" y2="435" class="net_24,25,26,27,28,29,30,31,32,33"/>
  <line x1="441" x2="441" y1="435" y2="422.5" class="net_24,25,26,27,28,29,30,31,32,33"/>
  <line x1="441" x2="491" y1="422.5" y2="422.5" class="net_24,25,26,27,28,29,30,31,32,33"/>
  <line x1="100" x2="181" y1="455" y2="455" class="net_2,3,4,5,6,7,8,9,10,11,12"/>
  <line x1="181" x2="181" y1="455" y2="518" class="net_2,3,4,5,6,7,8,9,10,11,12"/>
  <line x1="181" x2="534.0294117647059" y1="518" y2="518" class="net_2,3,4,5,6,7,8,9,10,11,12"/>
  <line x1="534.0294117647059" x2="534.0294117647059" y1="518" y2="561" class="net_2,3,4,5,6,7,8,9,10,11,12"/>
  <line x1="100" x2="171" y1="475" y2="475" class="net_12"/>
  <line x1="171" x2="171" y1="475" y2="529" class="net_12"/>
  <line x1="171" x2="507" y1="529" y2="529" class="net_12"/>
  <line x1="507" x2="507" y1="529" y2="539" class="net_12"/>
  <line x1="507" x2="534.0294117647059" y1="539" y2="539" class="net_12"/>
  <circle cx="507" cy="529" r="2" style="fill:#000" class="net_12"/>
  <circle cx="507" cy="539" r="2" style="fill:#000" class="net_12"/>
  <line x1="534.0294117647059" x2="534.0294117647059" y1="539" y2="581" class="net_12"/>
  <line x1="100" x2="171" y1="475" y2="475" class="net_12"/>
  <line x1="171" x2="171" y1="475" y2="529" class="net_12"/>
  <line x1="171" x2="534.0294117647059" y1="529" y2="529" class="net_12"/>
  <line x1="534.0294117647059" x2="534.0294117647059" y1="529" y2="601" class="net_12"/>
  <line x1="100" x2="171" y1="475" y2="475" class="net_12"/>
  <line x1="171" x2="171" y1="475" y2="529" class="net_12"/>
  <line x1="171" x2="507" y1="529" y2="529" class="net_12"/>
  <line x1="507" x2="507" y1="529" y2="621.5" class="net_12"/>
  <circle cx="507" cy="621.5" r="2" style="fill:#000" class="net_12"/>
  <line x1="507" x2="533.5294117647059" y1="621.5" y2="621.5" class="net_12"/>
  <line x1="100" x2="171" y1="475" y2="475" class="net_12"/>
  <line x1="171" x2="171" y1="475" y2="529" class="net_12"/>
  <line x1="171" x2="507" y1="529" y2="529" class="net_12"/>
  <line x1="507" x2="507" y1="529" y2="641.5" class="net_12"/>
  <circle cx="507" cy="641.5" r="2" style="fill:#000" class="net_12"/>
  <line x1="507" x2="533.5294117647059" y1="641.5" y2="641.5" class="net_12"/>
  <line x1="100" x2="171" y1="475" y2="475" class="net_12"/>
  <line x1="171" x2="171" y1="475" y2="529" class="net_12"/>
  <line x1="171" x2="507" y1="529" y2="529" class="net_12"/>
  <line x1="507" x2="507" y1="529" y2="661.5" class="net_12"/>
  <circle cx="507" cy="661.5" r="2" style="fill:#000" class="net_12"/>
  <line x1="507" x2="533.5294117647059" y1="661.5" y2="661.5" class="net_12"/>
  <line x1="100" x2="171" y1="475" y2="475" class="net_12"/>
  <line x1="171" x2="171" y1="475" y2="529" class="net_12"/>
  <line x1="171" x2="507" y1="529" y2="529" class="net_12"/>
  <line x1="507" x2="507" y1="529" y2="681.5" class="net_12"/>
  <circle cx="507" cy="681.5" r="2" style="fill:#000" class="net_12"/>
  <line x1="507" x2="533.5294117647059" y1="681.5" y2="681.5" class="net_12"/>
  <line x1="100" x2="171" y1="475" y2="475" class="net_12"/>
  <line x1="171" x2="171" y1="475" y2="529" class="net_12"/>
  <line x1="171" x2="507" y1="529" y2="529" class="net_12"/>
  <line x1="507" x2="507" y1="529" y2="701.5" class="net_12"/>
  <circle cx="507" cy="701.5" r="2" style="fill:#000" class="net_12"/>
  <line x1="507" x2="533.5294117647059" y1="701.5" y2="701.5" class="net_12"/>
  <line x1="100" x2="171" y1="475" y2="475" class="net_12"/>
  <line x1="171" x2="171" y1="475" y2="529" class="net_12"/>
  <line x1="171" x2="507" y1="529" y2="529" class="net_12"/>
  <line x1="507" x2="507" y1="529" y2="721.5" class="net_12"/>
  <circle cx="507" cy="721.5" r="2" style="fill:#000" class="net_12"/>
  <line x1="507" x2="533.5294117647059" y1="721.5" y2="721.5" class="net_12"/>
  <line x1="100" x2="171" y1="475" y2="475" class="net_12"/>
  <line x1="171" x2="171" y1="475" y2="529" class="net_12"/>
  <line x1="171" x2="507" y1="529" y2="529" class="net_12"/>
  <line x1="507" x2="507" y1="529" y2="741.5" class="net_12"/>
  <circle cx="507" cy="741.5" r="2" style="fill:#000" class="net_12"/>
  <line x1="507" x2="533.5294117647059" y1="741.5" y2="741.5" class="net_12"/>
  <line x1="100" x2="171" y1="475" y2="475" class="net_12"/>
  <line x1="171" x2="171" y1="475" y2="529" class="net_12"/>
  <line x1="171" x2="507" y1="529" y2="529" class="net_12"/>
  <line x1="507" x2="507" y1="529" y2="761.5" class="net_12"/>
  <circle cx="507" cy="761.5" r="2" style="fill:#000" class="net_12"/>
  <line x1="507" x2="533.5294117647059" y1="761.5" y2="761.5" class="net_12"/>
  <line x1="100" x2="171" y1="475" y2="475" class="net_12"/>
  <line x1="171" x2="171" y1="475" y2="529" class="net_12"/>
  <line x1="171" x2="507" y1="529" y2="529" class="net_12"/>
  <line x1="507" x2="507" y1="529" y2="781.5" class="net_12"/>
  <circle cx="507" cy="781.5" r="2" style="fill:#000" class="net_12"/>
  <line x1="507" x2="533.5294117647059" y1="781.5" y2="781.5" class="net_12"/>
  <line x1="100" x2="171" y1="475" y2="475" class="net_12"/>
  <line x1="171" x2="171" y1="475" y2="529" class="net_12"/>
  <line x1="171" x2="507" y1="529" y2="529" class="net_12"/>
  <line x1="507" x2="507" y1="529" y2="801.5" class="net_12"/>
  <circle cx="507" cy="801.5" r="2" style="fill:#000" class="net_12"/>
  <line x1="507" x2="533.5294117647059" y1="801.5" y2="801.5" class="net_12"/>
  <line x1="100" x2="171" y1="475" y2="475" class="net_12"/>
  <line x1="171" x2="171" y1="475" y2="529" class="net_12"/>
  <line x1="171" x2="507" y1="529" y2="529" class="net_12"/>
  <line x1="507" x2="507" y1="529" y2="821.5" class="net_12"/>
  <circle cx="507" cy="821.5" r="2" style="fill:#000" class="net_12"/>
  <line x1="507" x2="533.5294117647059" y1="821.5" y2="821.5" class="net_12"/>
  <line x1="100" x2="171" y1="475" y2="475" class="net_12"/>
  <line x1="171" x2="171" y1="475" y2="529" class="net_12"/>
  <line x1="171" x2="507" y1="529" y2="529" class="net_12"/>
  <line x1="507" x2="507" y1="529" y2="841.5" class="net_12"/>
  <circle cx="507" cy="841.5" r="2" style="fill:#000" class="net_12"/>
  <line x1="507" x2="533.5294117647059" y1="841.5" y2="841.5" class="net_12"/>
  <line x1="100" x2="171" y1="475" y2="475" class="net_12"/>
  <line x1="171" x2="171" y1="475" y2="529" class="net_12"/>
  <line x1="171" x2="507" y1="529" y2="529" class="net_12"/>
  <line x1="507" x2="507" y1="529" y2="861.5" class="net_12"/>
  <circle cx="507" cy="861.5" r="2" style="fill:#000" class="net_12"/>
  <line x1="507" x2="533.5294117647059" y1="861.5" y2="861.5" class="net_12"/>
  <line x1="100" x2="171" y1="475" y2="475" class="net_12"/>
  <line x1="171" x2="171" y1="475" y2="529" class="net_12"/>
  <line x1="171" x2="507" y1="529" y2="529" class="net_12"/>
  <line x1="507" x2="507" y1="529" y2="881.5" class="net_12"/>
  <circle cx="507" cy="881.5" r="2" style="fill:#000" class="net_12"/>
  <line x1="507" x2="533.5294117647059" y1="881.5" y2="881.5" class="net_12"/>
  <line x1="100" x2="171" y1="475" y2="475" class="net_12"/>
  <line x1="171" x2="171" y1="475" y2="529" class="net_12"/>
  <line x1="171" x2="507" y1="529" y2="529" class="net_12"/>
  <line x1="507" x2="507" y1="529" y2="901.5" class="net_12"/>
  <circle cx="507" cy="901.5" r="2" style="fill:#000" class="net_12"/>
  <line x1="507" x2="533.5294117647059" y1="901.5" y2="901.5" class="net_12"/>
  <line x1="100" x2="171" y1="475" y2="475" class="net_12"/>
  <line x1="171" x2="171" y1="475" y2="529" class="net_12"/>
  <line x1="171" x2="507" y1="529" y2="529" class="net_12"/>
  <line x1="507" x2="507" y1="529" y2="921.5" class="net_12"/>
  <circle cx="507" cy="921.5" r="2" style="fill:#000" class="net_12"/>
  <line x1="507" x2="533.5294117647059" y1="921.5" y2="921.5" class="net_12"/>
  <line x1="100" x2="171" y1="475" y2="475" class="net_12"/>
  <line x1="171" x2="171" y1="475" y2="529" class="net_12"/>
  <line x1="171" x2="507" y1="529" y2="529" class="net_12"/>
  <line x1="507" x2="507" y1="529" y2="1021" class="net_12"/>
  <line x1="507" x2="534.0294117647059" y1="1021" y2="1021" class="net_12"/>
  <line x1="534.0294117647059" x2="534.0294117647059" y1="1021" y2="942" class="net_12"/>
  <line x1="100" x2="171" y1="475" y2="475" class="net_12"/>
  <line x1="171" x2="171" y1="475" y2="529" class="net_12"/>
  <line x1="171" x2="507" y1="529" y2="529" class="net_12"/>
  <line x1="507" x2="507" y1="529" y2="1011" class="net_12"/>
  <line x1="507" x2="534.0294117647059" y1="1011" y2="1011" class="net_12"/>
  <circle cx="507" cy="1011" r="2" style="fill:#000" class="net_12"/>
  <line x1="534.0294117647059" x2="534.0294117647059" y1="1011" y2="962" class="net_12"/>
  <line x1="100" x2="171" y1="475" y2="475" class="net_12"/>
  <line x1="171" x2="171" y1="475" y2="529" class="net_12"/>
  <line x1="171" x2="507" y1="529" y2="529" class="net_12"/>
  <line x1="507" x2="507" y1="529" y2="1001" class="net_12"/>
  <line x1="507" x2="534.0294117647059" y1="1001" y2="1001" class="net_12"/>
  <circle cx="507" cy="1001" r="2" style="fill:#000" class="net_12"/>
  <line x1="534.0294117647059" x2="534.0294117647059" y1="1001" y2="982" class="net_12"/>
</svg>
